# xmcd
#
# Track frame offsets:
#	150
#	18115
#	32900
#	50454
#	67074
#	82625
#	99809
#	119885
#	133136
#	150027
#	163263
#	178024
#	191369
#	206269
#
# Disc length: 2920 seconds
#
# Revision: 0
# Processed by: cddbd v1.5.2PL0 Copyright (c) Steve Scherf et al.
# Submitted via: EasyCDDAExtractor 11.1.0.1
#
DISCID=ad0b660e
DTITLE=Various Artist - Mr Music country 12
DYEAR=2008
DGENRE=Country
TTITLE0=Bobby Flores - Cajun baby
TTITLE1=Tommy Alverson and Johnny Bush - Anytime anywhere
TTITLE2=Gretchen Wilson - He ain't even cold yet
TTITLE3=Montgomery Gentry - Long line of losers
TTITLE4=Mike Cowan - Too much time in the honky tonks
TTITLE5=Perley Curtis and Erin Hay - Making plans
TTITLE6=Buddy Jewll - Dyess Arkansas
TTITLE7=Crystal Shawanda - Your cheating heart
TTITLE8=The Lost Trailers - Country folks
TTITLE9=Cookies 'n' Beans - Train train
TTITLE10=Billy Keeble - Dear Santa
TTITLE11=Arkey Blue - Blue bandera Christmas
TTITLE12=Heidi Hauge - Christmas party
TTITLE13=Johnny Bush - Thrree wooden crosses
EXTD=
EXTT0=
EXTT1=
EXTT2=
EXTT3=
EXTT4=
EXTT5=
EXTT6=
EXTT7=
EXTT8=
EXTT9=
EXTT10=
EXTT11=
EXTT12=
EXTT13=
PLAYORDER=
